#N canvas 61 644 450 300 10;
#X declare -path osc;
#X declare -path ../osc;
#X declare -path ../osc;
#X declare -path ../osc;
#X declare -path ../osc;
#X declare -path ../osc;
#X declare -path ../osc;
#X declare -path ../osc;
#X declare -path ../osc;
#X declare -path ../osc;
#X declare -path ../osc;
#X declare -path ../osc;
#X declare -path ../osc;
#X declare -path ../osc;
#X declare -path ../osc;
#X declare -path ../osc;
#X declare -path ../osc;
#X declare -path ../osc;
#X declare -path ../osc;
#X declare -path ../osc;
#X declare -path ../osc;
#X declare -path ../osc;
#X declare -path ../osc;
#X declare -path ../osc;
#X declare -path ../osc;
#X declare -path ../osc;
#X declare -path ../osc;
#X declare -path ../osc;
#X declare -path ../osc;
#X declare -path ../osc;
#X declare -path ../osc;
#X declare -path ../osc;
#X declare -path ../osc;
#X declare -path ../osc;
#X declare -path ../osc;
#X declare -path ../osc;
#X declare -path ../osc;
#X declare -path ../osc;
#X declare -path ../osc;
#X declare -path ../osc;
#X declare -path ../osc;
#X declare -path ../osc;
#X declare -path ../osc;
#X declare -path ../osc;
#X declare -path ../osc;
#X declare -path ../osc;
#X declare -path ../osc;
#X declare -path ../osc;
#X declare -path ../osc;
#X declare -path ../osc;
#X declare -path ../osc;
#X declare -path ../osc;
#X declare -path ../osc;
#X declare -path ../osc;
#X declare -path ../osc;
#X declare -path ../osc;
#X declare -path ../osc;
#X declare -path ../osc;
#X declare -path ../osc;
#X declare -path ../osc;
#X declare -path ../osc;
#X declare -path ../osc;
#X declare -path ../osc;
#X declare -path ../osc;
#X declare -path ../osc;
#X declare -path ../osc;
#X declare -path ../osc;
#X declare -path ../osc;
#X declare -path ../osc;
#X declare -path ../osc;
#X declare -path ../osc;
#X declare -path ../osc;
#X declare -path ../osc;
#X declare -path ../osc;
#X declare -path ../osc;
#X declare -path ../osc;
#X declare -path ../osc;
#X declare -path ../osc;
#X declare -path ../osc;
#X declare -path ../osc;
#X declare -path ../osc;
#X declare -path ../osc;
#X declare -path ../osc;
#X declare -path ../osc;
#X declare -path ../osc;
#X declare -path ../osc;
#X declare -path ../osc;
#X declare -path ../osc;
#X declare -path ../osc;
#X declare -path ../osc;
#X declare -path ../osc;
#X declare -path ../osc;
#X declare -path ../osc;
#X declare -path ../osc;
#X declare -path ../osc;
#X declare -path ../osc;
#X declare -path ../osc;
#X declare -path ../osc;
#X declare -path ../osc;
#X declare -path ../osc;
#X declare -path ../osc;
#X declare -path ../osc;
#X declare -path ../osc;
#X declare -path ../osc;
#X declare -path ../osc;
#X declare -path ../osc;
#X declare -path ../osc;
#X declare -path ../osc;
#X declare -path ../osc;
#X declare -path ../osc;
#X declare -path ../osc;
#X declare -path ../osc;
#X declare -path ../osc;
#X declare -path ../osc;
#X declare -path ../osc;
#X declare -path ../osc;
#N canvas 566 412 418 579 OSC 1;
#X obj 41 427 s from_i-score;
#X obj 252 52 r to_i-score;
#X obj 133 240 netsend -u -b;
#X obj 195 192 loadbang;
#X obj 133 166 spigot;
#X obj 152 291 tgl 15 0 empty empty empty 17 7 0 10 -262144 -1 -1 1
1;
#X msg 195 212 connect 127.0.0.1 9996;
#X obj 106 382 netreceive -u -b 9997;
#X obj 252 156 spigot;
#X obj 285 137 tgl 15 0 empty empty empty 17 7 0 10 -262144 -1 -1 0
1;
#X obj 252 176 print to_i-score;
#X obj 106 450 spigot;
#X obj 139 431 tgl 15 0 empty empty empty 17 7 0 10 -262144 -1 -1 0
1;
#X obj 106 490 print from_i-score;
#X obj 133 260 t f f f;
#X obj 133 121 list prepend send;
#X obj 133 143 list trim;
#X obj 133 315 sel 1;
#X msg 41 346 get;
#X obj 133 100 packOSC;
#X obj 106 402 unpackOSC;
#X obj 65 28 inlet;
#X obj 65 49 t b b b;
#X msg 103 70 [;
#X msg 53 70 ];
#X text 134 70 bundlization;
#X text 69 347 bang all parameters to expose them to i-score;
#X obj 208 287 sel 0;
#X obj 208 309 del 1000;
#X msg 105 196 disconnect;
#X connect 1 0 8 0;
#X connect 1 0 19 0;
#X connect 2 0 14 0;
#X connect 3 0 6 0;
#X connect 4 0 2 0;
#X connect 6 0 2 0;
#X connect 7 0 20 0;
#X connect 8 0 10 0;
#X connect 9 0 8 1;
#X connect 11 0 13 0;
#X connect 12 0 11 1;
#X connect 14 0 17 0;
#X connect 14 1 5 0;
#X connect 14 1 27 0;
#X connect 14 2 4 1;
#X connect 15 0 16 0;
#X connect 16 0 4 0;
#X connect 17 0 22 0;
#X connect 18 0 0 0;
#X connect 19 0 15 0;
#X connect 20 0 11 0;
#X connect 20 0 0 0;
#X connect 21 0 22 0;
#X connect 22 0 24 0;
#X connect 22 1 18 0;
#X connect 22 2 23 0;
#X connect 23 0 19 0;
#X connect 24 0 19 0;
#X connect 27 0 28 0;
#X connect 28 0 6 0;
#X connect 29 0 2 0;
#X restore 184 67 pd OSC;
#X obj 167 68 bng 15 250 50 0 empty empty empty 17 7 0 10 -262144 -1
-1;
#X obj 170 41 declare -path osc;
#X obj 163 113 dummy_text 0;
#X obj 163 133 dummy_text 1;
#X obj 163 153 dummy_text 2;
#X obj 163 173 dummy_text 3;
#X obj 163 193 dummy_text 4;
#X obj 279 111 dummy_video 0;
#X obj 279 131 dummy_video 1;
#X obj 279 151 dummy_video 2;
#X obj 279 171 dummy_video 3;
#X obj 279 191 dummy_video 4;
#X connect 1 0 0 0;
