#N canvas 74 633 450 300 10;
#X declare -path ../osc;
#X obj 120 7 inlet;
#X obj 120 87 s to_i-score;
#X obj 119 128 r from_i-score;
#X obj 119 262 outlet;
#X obj 120 47 list prepend \$1;
#X obj 120 67 list trim;
#X floatatom 157 10 5 0 0 0 - - -, f 5;
#X symbolatom 192 10 10 0 0 0 - - -, f 10;
#X obj 176 229 spigot;
#X obj 209 210 tgl 15 0 empty empty empty 17 7 0 10 -262144 -1 -1 0
1;
#X obj 176 269 print from_i-score;
#X obj 119 150 route get, f 10;
#X obj 268 14 declare -path ../osc;
#X obj 176 170 routeOSC \$1;
#X connect 0 0 4 0;
#X connect 2 0 11 0;
#X connect 4 0 5 0;
#X connect 5 0 1 0;
#X connect 6 0 4 0;
#X connect 7 0 4 0;
#X connect 8 0 10 0;
#X connect 9 0 8 1;
#X connect 11 0 3 0;
#X connect 11 1 13 0;
#X connect 13 0 8 0;
#X connect 13 0 3 0;
